<svg width="16" height="17" viewBox="0 0 16 17" fill="none" xmlns="http://www.w3.org/2000/svg">
<path fill-rule="evenodd" clip-rule="evenodd" d="M5 1.5H11V1.00468C11 0.714035 11.226 0.5 11.5047 0.5H12.4953C12.786 0.5 13 0.725955 13 1.00468V1.5H14.7568C15.3028 1.5 15.75 1.94725 15.75 2.49896V3.50104C15.75 4.05734 15.3053 4.5 14.7568 4.5H1.24317C0.697169 4.5 0.25 4.05275 0.25 3.50104V2.49896C0.25 1.94266 0.694659 1.5 1.24317 1.5H3V1.00468C3 0.714035 3.22596 0.5 3.50468 0.5H4.49532C4.78596 0.5 5 0.725955 5 1.00468V1.5ZM1.50468 5.5H2.49532C2.78596 5.5 3 5.72596 3 6.00468V6.99532C3 7.28596 2.77404 7.5 2.49532 7.5H1.50468C1.21404 7.5 1 7.27404 1 6.99532V6.00468C1 5.71404 1.22595 5.5 1.50468 5.5ZM4.50468 5.5H5.49532C5.78596 5.5 6 5.72596 6 6.00468V6.99532C6 7.28596 5.77404 7.5 5.49532 7.5H4.50468C4.21404 7.5 4 7.27404 4 6.99532V6.00468C4 5.71404 4.22596 5.5 4.50468 5.5ZM7.50468 5.5H8.49532C8.78596 5.5 9 5.72596 9 6.00468V6.99532C9 7.28596 8.77404 7.5 8.49532 7.5H7.50468C7.21404 7.5 7 7.27404 7 6.99532V6.00468C7 5.71404 7.22596 5.5 7.50468 5.5ZM1.50468 8.5H2.49532C2.78596 8.5 3 8.72596 3 9.00468V9.99532C3 10.286 2.77404 10.5 2.49532 10.5H1.50468C1.21404 10.5 1 10.274 1 9.99532V9.00468C1 8.71404 1.22595 8.5 1.50468 8.5ZM4.50468 8.5H5.49532C5.78596 8.5 6 8.72596 6 9.00468V9.99532C6 10.286 5.77404 10.5 5.49532 10.5H4.50468C4.21404 10.5 4 10.274 4 9.99532V9.00468C4 8.71404 4.22596 8.5 4.50468 8.5ZM7.50468 8.5H8.49532C8.78596 8.5 9 8.72596 9 9.00468V9.99532C9 10.286 8.77404 10.5 8.49532 10.5H7.50468C7.21404 10.5 7 10.274 7 9.99532V9.00468C7 8.71404 7.22596 8.5 7.50468 8.5ZM1.50468 11.5H2.49532C2.78596 11.5 3 11.726 3 12.0047V12.9953C3 13.286 2.77404 13.5 2.49532 13.5H1.50468C1.21404 13.5 1 13.274 1 12.9953V12.0047C1 11.714 1.22595 11.5 1.50468 11.5ZM4.50468 11.5H5.49532C5.78596 11.5 6 11.726 6 12.0047V12.9953C6 13.286 5.77404 13.5 5.49532 13.5H4.50468C4.21404 13.5 4 13.274 4 12.9953V12.0047C4 11.714 4.22596 11.5 4.50468 11.5ZM7.50468 11.5H8.49532C8.78596 11.5 9 11.726 9 12.0047V12.9953C9 13.286 8.77404 13.5 8.49532 13.5H7.50468C7.21404 13.5 7 13.274 7 12.9953V12.0047C7 11.714 7.22596 11.5 7.50468 11.5ZM10.5047 5.5H11.4953C11.786 5.5 12 5.72596 12 6.00468V6.99532C12 7.28596 11.774 7.5 11.4953 7.5H10.5047C10.214 7.5 10 7.27404 10 6.99532V6.00468C10 5.71404 10.226 5.5 10.5047 5.5ZM10.5047 8.5H11.4953C11.786 8.5 12 8.72596 12 9.00468V9.99532C12 10.286 11.774 10.5 11.4953 10.5H10.5047C10.214 10.5 10 10.274 10 9.99532V9.00468C10 8.71404 10.226 8.5 10.5047 8.5ZM10.5047 11.5H11.4953C11.786 11.5 12 11.726 12 12.0047V12.9953C12 13.286 11.774 13.5 11.4953 13.5H10.5047C10.214 13.5 10 13.274 10 12.9953V12.0047C10 11.714 10.226 11.5 10.5047 11.5ZM13.5047 11.5H14.4953C14.786 11.5 15 11.726 15 12.0047V12.9953C15 13.286 14.774 13.5 14.4953 13.5H13.5047C13.214 13.5 13 13.274 13 12.9953V12.0047C13 11.714 13.226 11.5 13.5047 11.5ZM1.50468 14.5H2.49532C2.78596 14.5 3 14.726 3 15.0047V15.9953C3 16.286 2.77404 16.5 2.49532 16.5H1.50468C1.21404 16.5 1 16.274 1 15.9953V15.0047C1 14.714 1.22595 14.5 1.50468 14.5ZM4.50468 14.5H5.49532C5.78596 14.5 6 14.726 6 15.0047V15.9953C6 16.286 5.77404 16.5 5.49532 16.5H4.50468C4.21404 16.5 4 16.274 4 15.9953V15.0047C4 14.714 4.22596 14.5 4.50468 14.5ZM7.50468 14.5H8.49532C8.78596 14.5 9 14.726 9 15.0047V15.9953C9 16.286 8.77404 16.5 8.49532 16.5H7.50468C7.21404 16.5 7 16.274 7 15.9953V15.0047C7 14.714 7.22596 14.5 7.50468 14.5ZM10.5047 14.5H11.4953C11.786 14.5 12 14.726 12 15.0047V15.9953C12 16.286 11.774 16.5 11.4953 16.5H10.5047C10.214 16.5 10 16.274 10 15.9953V15.0047C10 14.714 10.226 14.5 10.5047 14.5ZM13.5047 14.5H14.4953C14.786 14.5 15 14.726 15 15.0047V15.9953C15 16.286 14.774 16.5 14.4953 16.5H13.5047C13.214 16.5 13 16.274 13 15.9953V15.0047C13 14.714 13.226 14.5 13.5047 14.5ZM13.5047 8.5H14.4953C14.786 8.5 15 8.72596 15 9.00468V9.99532C15 10.286 14.774 10.5 14.4953 10.5H13.5047C13.214 10.5 13 10.274 13 9.99532V9.00468C13 8.71404 13.226 8.5 13.5047 8.5ZM13.5047 5.5H14.4953C14.786 5.5 15 5.72596 15 6.00468V6.99532C15 7.28596 14.774 7.5 14.4953 7.5H13.5047C13.214 7.5 13 7.27404 13 6.99532V6.00468C13 5.71404 13.226 5.5 13.5047 5.5Z" fill="#90A3BF"/>
</svg>
