<svg width="12" height="12" viewBox="0 0 12 12" fill="none" xmlns="http://www.w3.org/2000/svg">
<path d="M5.2181 5.21859H1.22305C0.791359 5.21859 0.441406 5.56854 0.441406 6.00023C0.441406 6.43192 0.791359 6.78187 1.22305 6.78187H5.2181V10.7769C5.2181 11.2086 5.56805 11.5586 5.99974 11.5586C6.43143 11.5586 6.78138 11.2086 6.78138 10.7769V6.78187H10.7764C11.2081 6.78187 11.5581 6.43192 11.5581 6.00023C11.5581 5.56854 11.2081 5.21859 10.7764 5.21859H6.78138V1.22354C6.78138 0.791847 6.43143 0.441895 5.99974 0.441895C5.56805 0.441895 5.2181 0.791847 5.2181 1.22354V5.21859Z" fill="#5E4AE3"/>
</svg>
