<svg width="73" height="39" viewBox="0 0 73 39" fill="none" xmlns="http://www.w3.org/2000/svg">
<path fill-rule="evenodd" clip-rule="evenodd" d="M17.1055 3.50592L12.8214 4.20892C10.2274 5.06342 9.05731 8.31779 8.27106 10.6328C7.64578 12.4751 7.12574 14.366 6.62428 16.2386C6.01138 18.5536 5.42324 20.8747 4.81653 23.1897L0 34.0073C2.20397 39.6919 9.42257 39.2859 14.5796 38.6435C17.477 38.2799 20.3805 37.6799 23.2035 36.9526C24.5098 36.6193 25.8409 36.2557 27.1286 35.8376L28.0572 35.5345C28.0572 34.2619 28.0572 33.1771 28.3668 31.9105L28.6887 31.8317L65.2894 23.1231L45.4165 26.535C46.2461 25.3411 46.9581 24.0624 47.5524 22.7231L66.8681 19.3596L33.8457 23.3534L42.253 20.1778L67.1962 17.6809L42.8102 21.1292L40.761 22.517L33.8519 23.3534C33.8519 23.3534 26.7138 26.5168 26.7138 34.577C26.7138 34.577 25.8347 34.8558 24.3984 35.2376L22.4297 27.4501L23.2964 35.5224C22.6711 35.68 21.9839 35.8497 21.2472 36.0133L19.6438 27.6743L19.8666 36.3103C19.1795 36.4557 18.4613 36.589 17.7246 36.7224L16.6783 28.038L16.5917 36.9102C15.7497 37.0436 14.8891 37.1587 14.0224 37.2496L13.7067 28.1289L12.9947 37.3466C11.998 37.4314 11.0074 37.4738 10.054 37.4678L11.2056 28.0804L9.08826 37.4435C7.96771 37.395 6.90906 37.2678 5.95566 37.0375L8.46917 28.2622L5.00226 36.7587C4.30888 36.5224 3.68979 36.2194 3.16356 35.8376L6.28378 26.6683L2.55685 35.3224C2.12967 34.8982 1.79537 34.4013 1.57249 33.8195L6.11662 23.614L6.32092 22.8382L9.41019 27.3895L23.544 25.9956L28.3977 17.0204L32.7747 16.6204L30.5522 14.372L41.1882 14.8629L67.9267 14.4205L48.9825 14.1478L26.7076 12.7782L29.1654 15.2689L26.9367 15.4447L22.4297 24.3957L20.1143 24.5412L23.2778 11.4691L15.954 7.6451L10.5741 10.3662L7.75103 21.7716L6.90287 20.5838C9.12541 11.9661 10.5741 6.34214 13.1681 5.48764C19.9719 4.36648 23.3336 4.04529 31.5613 5.9361C32.1494 4.95433 32.0813 3.48774 32.0813 3.48774L34.4462 4.11195C29.834 1.89389 25.1413 1.77268 21.2782 2.46961L21.1544 2.53022C21.792 2.22114 22.4668 1.94237 23.1726 1.71208C26.9181 0.87576 31.9451 1.7848 36.4026 3.20897L74 6.97241L36.805 1.94843C29.314 -0.421142 23.2964 -1.38473 17.1117 3.50592H17.1055ZM18.2199 24.6745L20.4672 12.9236L15.2235 9.89953L11.3851 12.0146L8.52489 22.8807L10.1655 25.1714L18.2261 24.6684L18.2199 24.6745ZM38.0122 5.19068L35.734 4.65738C35.412 4.57859 35.1025 4.62708 34.8239 4.79676C34.5391 4.96645 34.341 5.20886 34.2853 5.53006L33.7776 8.31173C33.6786 8.84504 33.7405 9.34804 34.05 9.7965C34.3596 10.251 34.7991 10.5237 35.3501 10.6086L38.0184 11.0207V5.19068H38.0122ZM39.2256 9.91771V10.851L68.7811 11.8812L39.2256 9.91771ZM71.8827 9.15411L39.2256 5.78459V6.71788L71.8827 9.15411ZM70.0378 10.2995L39.2256 7.85115V8.78443L70.0378 10.3056V10.2995ZM45.8128 23.0685C45.1441 24.42 44.327 25.6987 43.3859 26.8926L29.605 30.1712C30.4407 27.9592 32.3475 25.826 34.471 24.6987L45.8128 23.0685Z" fill="#010400"/>
</svg>
