<svg width="29" height="31" viewBox="0 0 29 31" fill="none" xmlns="http://www.w3.org/2000/svg">
<path d="M23.428 4.95946C22.5335 5.01058 21.6362 4.9388 20.7613 4.74613C19.7059 4.38473 18.7188 3.84836 17.8413 3.15946C17.0906 2.62731 16.3778 2.04369 15.708 1.4128C15.424 1.14754 15.0499 1 14.6613 1C14.2727 1 13.8986 1.14754 13.6146 1.4128C12.9626 2.02374 12.2771 2.59796 11.5613 3.1328C10.6784 3.83075 9.6876 4.38018 8.62795 4.75946C7.63134 4.98465 6.60755 5.06547 5.58795 4.99946C4.75309 4.96489 3.92074 4.88477 3.09462 4.75946C2.89275 4.72954 2.68691 4.74057 2.4894 4.7919C2.29188 4.84323 2.10672 4.93381 1.94496 5.05824C1.78321 5.18267 1.64816 5.3384 1.54788 5.51614C1.4476 5.69389 1.38414 5.89 1.36129 6.0928C1.29462 6.7328 1.12129 8.39946 1.04129 10.2528C0.929174 12.1045 1.04561 13.9629 1.38795 15.7861C2.35334 18.8068 4.12888 21.5047 6.52129 23.5861C8.42287 25.3798 10.4848 26.9955 12.6813 28.4128C13.2699 28.817 13.9672 29.0333 14.6813 29.0333C15.3953 29.0333 16.0926 28.817 16.6813 28.4128C18.7613 26.9585 20.7068 25.3208 22.4946 23.5195C24.747 21.4228 26.415 18.776 27.3346 15.8395" stroke="#010400" stroke-width="2" stroke-linecap="round" stroke-linejoin="round"/>
<path d="M13.0415 13.6657L16.8548 17.479C16.8786 17.5049 16.9074 17.5255 16.9395 17.5397C16.9717 17.5538 17.0064 17.5611 17.0415 17.5611C17.0766 17.5611 17.1113 17.5538 17.1435 17.5397C17.1756 17.5255 17.2044 17.5049 17.2282 17.479L27.7082 6.99902" stroke="#5E4AE3" stroke-width="2" stroke-linecap="round" stroke-linejoin="round"/>
</svg>
